<svg width="55" height="55" viewBox="0 0 55 55" fill="none" xmlns="http://www.w3.org/2000/svg">
<path d="M22.9167 37.8125L36.6667 27.5L22.9167 17.1875V37.8125ZM27.5 4.58334C14.85 4.58334 4.58337 14.85 4.58337 27.5C4.58337 40.15 14.85 50.4167 27.5 50.4167C40.15 50.4167 50.4167 40.15 50.4167 27.5C50.4167 14.85 40.15 4.58334 27.5 4.58334ZM27.5 45.8333C17.3938 45.8333 9.16671 37.6063 9.16671 27.5C9.16671 17.3938 17.3938 9.16668 27.5 9.16668C37.6063 9.16668 45.8334 17.3938 45.8334 27.5C45.8334 37.6063 37.6063 45.8333 27.5 45.8333Z" fill="black"/>
</svg>
