<svg width="55" height="55" viewBox="0 0 55 55" fill="none" xmlns="http://www.w3.org/2000/svg">
<path d="M22.9166 37.8125L36.6666 27.5L22.9166 17.1875V37.8125ZM27.4999 4.58334C14.8499 4.58334 4.58325 14.85 4.58325 27.5C4.58325 40.15 14.8499 50.4167 27.4999 50.4167C40.1499 50.4167 50.4166 40.15 50.4166 27.5C50.4166 14.85 40.1499 4.58334 27.4999 4.58334ZM27.4999 45.8333C17.3937 45.8333 9.16659 37.6063 9.16659 27.5C9.16659 17.3938 17.3937 9.16668 27.4999 9.16668C37.6062 9.16668 45.8333 17.3938 45.8333 27.5C45.8333 37.6063 37.6062 45.8333 27.4999 45.8333Z" fill="black"/>
</svg>
