<svg width="13" height="12" viewBox="0 0 13 12" fill="none" xmlns="http://www.w3.org/2000/svg">
<path d="M10.25 3.87746C10.1095 3.73777 9.91941 3.65936 9.72127 3.65936C9.52313 3.65936 9.33304 3.73777 9.19252 3.87746L6.50002 6.53246L3.84502 3.87746C3.7045 3.73777 3.51441 3.65936 3.31627 3.65936C3.11813 3.65936 2.92804 3.73777 2.78752 3.87746C2.71723 3.94718 2.66143 4.03013 2.62335 4.12152C2.58528 4.21292 2.56567 4.31095 2.56567 4.40996C2.56567 4.50897 2.58528 4.607 2.62335 4.69839C2.66143 4.78978 2.71723 4.87274 2.78752 4.94246L5.96752 8.12246C6.03724 8.19275 6.1202 8.24855 6.21159 8.28663C6.30298 8.3247 6.40101 8.34431 6.50002 8.34431C6.59903 8.34431 6.69706 8.3247 6.78846 8.28663C6.87985 8.24855 6.9628 8.19275 7.03252 8.12246L10.25 4.94246C10.3203 4.87274 10.3761 4.78978 10.4142 4.69839C10.4523 4.607 10.4719 4.50897 10.4719 4.40996C10.4719 4.31095 10.4523 4.21292 10.4142 4.12152C10.3761 4.03013 10.3203 3.94718 10.25 3.87746Z" fill="#797B86"/>
</svg>
